<?xml version="1.0" encoding="UTF-8"?>
<svg id="Capa_2" data-name="Capa 2" xmlns="http://www.w3.org/2000/svg" viewBox="0 0 663.49 142.04">
  <defs>
    <style>
      .cls-1 {
        fill: #fff;
      }
    </style>
  </defs>
  <g id="Capa_1-2" data-name="Capa 1">
    <g>
      <path class="cls-1" d="M151.93,28.54L76.87,2.02c-18.38-6.49-38.62,3.18-45.11,21.55-3.1,8.77-2.62,18.25,1.23,26.58l-9.44-3.34L0,113.48l75.06,26.52c3.85,1.36,7.83,2.04,11.8,2.04,5.2,0,10.38-1.16,15.22-3.47,8.52-4.07,14.94-11.22,18.09-20.12,3.1-8.77,2.62-18.25-1.23-26.58l9.44,3.34,23.55-66.66ZM112.89,92.88c0,12.11-9.85,21.95-21.95,21.95h-52.78v-43.91h11.56l-3.44-2.79c-5.16-4.19-8.12-10.41-8.12-17.04,0-12.11,9.85-21.95,21.95-21.95h52.78v43.91h-11.56l3.44,2.79c5.16,4.19,8.12,10.41,8.12,17.04ZM41.37,67.78h-6.35v47.16l-8.18-1.17,7.06-49.48,5.39.77c.64.94,1.32,1.86,2.08,2.72ZM90.94,117.98c10.3,0,19.17-6.24,23.03-15.14-2.77,12.65-14.92,21.24-27.93,19.38l-29.73-4.24h34.62ZM109.69,76.19h6.35V28.33l8.47,1.21-7.06,49.49-6.19-.88c-.49-.67-1.01-1.33-1.57-1.96ZM60.12,25.99c-10.03,0-18.7,5.92-22.72,14.44,1.28-5.83,4.55-10.96,9.38-14.58,5.34-4.01,11.93-5.69,18.53-4.75l34.27,4.89h-39.46ZM37.34,61.6l-6.11-.87-7.71,54.04-8.07-2.08,14.22-55.1,6.76,1.74c.27.77.57,1.53.91,2.27ZM85.6,125.33c1.34.19,2.67.28,3.99.28,12.25,0,23.14-8.04,26.8-19.69-.15,1.09-.36,2.17-.64,3.25-1.9,7.36-6.55,13.54-13.1,17.4-6.55,3.86-14.2,4.94-21.56,3.04l-42.74-11.03,47.24,6.74ZM113.38,81.62l6.75.96,7.8-54.73,8.26,2.13-14.22,55.1-7.96-2.05c-.2-.47-.4-.95-.64-1.41ZM65.75,17.98c-7.44-1.06-14.85.84-20.86,5.35-4.44,3.33-7.72,7.79-9.56,12.89.14-.91.32-1.82.56-2.73,1.9-7.36,6.55-13.54,13.1-17.4,6.55-3.86,14.2-4.94,21.56-3.04l48.71,12.57-53.5-7.63ZM25.47,50.83l9.42,3.33c.17.56.36,1.12.57,1.67l-8.06-2.08-15.62,60.56-7.77-2.74,21.46-60.73ZM100.72,135.73c-7.76,3.71-16.5,4.17-24.61,1.31l-57.17-20.2,61.37,15.83c2.64.68,5.28,1.01,7.89,1.01,14.07,0,26.93-9.47,30.6-23.71.04-.15.07-.31.11-.46-.24,2.66-.8,5.31-1.71,7.89-2.87,8.11-8.72,14.62-16.48,18.33ZM116.28,87.59c-.15-.28-.29-.56-.44-.84l8.39,2.17,15.79-61.2L71.33,10c-8.17-2.11-16.68-.91-23.95,3.38-7.02,4.14-12.06,10.68-14.3,18.47.27-2.44.81-4.86,1.65-7.23,2.87-8.11,8.72-14.62,16.48-18.33,7.76-3.71,16.5-4.17,24.61-1.31l72.09,25.47-21.46,60.73-10.18-3.6Z"/>
      <g>
        <path class="cls-1" d="M223.71,68.08c-2.94-.57-6.36-.86-10.16-.86-3.32,0-6.19-.49-8.54-1.47-2.11-.87-3.09-2.29-3.09-4.46s1.03-3.81,3.16-4.88c2.33-1.16,5.11-1.76,8.26-1.76,2.86,0,5.57.47,8.04,1.41,2.31.87,3.7,2.2,4.26,4.05l.02.05.02.05.21.49.27.63h7.92l-.22-1.23-.14-.77c-.76-4.32-3.31-7.5-7.56-9.45-4.06-1.86-8.56-2.8-13.38-2.8-5.24,0-9.72,1.14-13.29,3.4-3.73,2.35-5.62,6.11-5.62,11.16,0,3.7,1.03,6.57,3.06,8.53,1.97,1.89,4.45,3.15,7.37,3.75,2.8.57,6.05.87,9.68.87s6.7.52,9.33,1.55c2.38.93,3.49,2.45,3.49,4.8s-1.15,4.19-3.53,5.33c-2.59,1.24-5.62,1.87-9.02,1.87-2.96,0-5.8-.49-8.44-1.45-2.47-.9-3.97-2.24-4.58-4.1v-.04s-.03-.04-.03-.04l-.21-.49-.27-.63h-7.92l.22,1.23.14.77c.56,3.07,2.09,5.57,4.55,7.43,2.35,1.79,5.11,3.08,8.19,3.84,3.02.74,6.07,1.12,9.05,1.12,5.48,0,10.17-1.2,13.96-3.57,3.94-2.47,5.94-6.38,5.94-11.62,0-3.8-1.12-6.77-3.32-8.82-2.13-1.98-4.76-3.29-7.83-3.88Z"/>
        <path class="cls-1" d="M292.2,49.89c-1.97-1.25-4.35-1.89-7.07-1.89h-31.66v46.99h8.06v-19.71h23.59c4.1,0,7.32-1.33,9.59-3.95,2.22-2.58,3.35-5.81,3.35-9.62,0-2.44-.48-4.72-1.43-6.77-.97-2.1-2.46-3.8-4.43-5.05ZM290,61.78c0,1.82-.43,3.3-1.26,4.4-.78,1.03-1.96,1.53-3.61,1.53h-23.59v-12.07h23.59c1.58,0,2.75.54,3.56,1.65.87,1.2,1.31,2.71,1.31,4.49Z"/>
        <polygon class="cls-1" points="317.29 48 316.25 48 316.25 49.04 316.25 93.94 316.25 94.99 317.29 94.99 357.97 94.99 359.01 94.99 359.01 93.94 359.01 88.45 359.01 87.41 357.97 87.41 324.31 87.41 324.31 75.28 349.1 75.28 350.14 75.28 350.14 74.24 350.14 68.75 350.14 67.71 349.1 67.71 324.31 67.71 324.31 55.64 357.97 55.64 359.01 55.64 359.01 54.6 359.01 49.04 359.01 48 357.97 48 317.29 48"/>
        <path class="cls-1" d="M411.82,76.29h-.79l-.22.76-.14.49c-.96,3.04-2.65,5.56-5.03,7.46-2.36,1.88-5.18,2.83-8.39,2.83-2.86,0-5.38-.77-7.48-2.3-2.14-1.55-3.79-3.6-4.9-6.09-1.13-2.53-1.7-5.23-1.7-8.02s.57-5.48,1.7-7.98c1.12-2.47,2.77-4.51,4.91-6.06,2.11-1.53,4.62-2.3,7.48-2.3,3.21,0,6.03.96,8.39,2.87,2.38,1.92,4.08,4.46,5.05,7.53l.13.47.22.75h8.73l-.32-1.29-.21-.84c-.83-3.31-2.26-6.33-4.26-8.96-2.01-2.65-4.56-4.75-7.58-6.25-3.02-1.5-6.41-2.26-10.07-2.26-4.65,0-8.75,1.16-12.19,3.45-3.43,2.28-6.07,5.32-7.86,9.04-1.77,3.69-2.67,7.7-2.67,11.92s.9,8.23,2.67,11.92c1.79,3.72,4.43,6.77,7.85,9.07,3.44,2.31,7.54,3.48,12.19,3.48,5.53,0,10.3-1.66,14.18-4.93,3.86-3.25,6.46-7.52,7.73-12.69l.2-.75.36-1.31h-7.98Z"/>
        <polygon class="cls-1" points="433.28 48 432.24 48 432.24 49.04 432.24 54.6 432.24 55.64 433.28 55.64 450.05 55.64 450.05 93.94 450.05 94.99 451.09 94.99 457.07 94.99 458.11 94.99 458.11 93.94 458.11 55.64 474.95 55.64 475.99 55.64 475.99 54.6 475.99 49.04 475.99 48 474.95 48 433.28 48"/>
        <path class="cls-1" d="M535.51,70.87c1.88-2.59,2.84-5.67,2.84-9.16,0-2.44-.48-4.72-1.43-6.77-.97-2.1-2.46-3.8-4.43-5.05-1.97-1.25-4.35-1.89-7.07-1.89h-31.66v46.99h8.06v-19.71h15.88l10.89,19.18.3.53h9.09l-.9-1.56-10.47-18.21h.31c3.76-.22,6.64-1.67,8.58-4.35ZM530.28,61.78c0,1.82-.43,3.3-1.26,4.4-.78,1.03-1.96,1.53-3.61,1.53h-23.59v-12.07h23.59c1.58,0,2.75.54,3.56,1.65.87,1.2,1.31,2.71,1.31,4.49Z"/>
        <path class="cls-1" d="M591.92,48h-1.04v24.48c0,2.61-.52,5.14-1.53,7.51-1,2.33-2.5,4.25-4.45,5.7-1.92,1.43-4.24,2.15-6.91,2.15s-4.99-.72-6.91-2.15c-1.95-1.45-3.45-3.37-4.45-5.7-1.02-2.37-1.53-4.89-1.53-7.51v-24.48h-8.06v24.48c0,3.88.81,7.66,2.41,11.23,1.62,3.6,4.03,6.57,7.17,8.83,3.17,2.28,7,3.43,11.38,3.43s8.21-1.16,11.38-3.43c3.14-2.26,5.55-5.23,7.17-8.83,1.6-3.57,2.41-7.35,2.41-11.23v-24.48h-7.02Z"/>
        <polygon class="cls-1" points="662.45 48 656.53 48 656.01 48 655.7 48.42 641.68 67.49 627.38 48.42 627.07 48 626.55 48 620.78 48 619.74 48 619.74 49.04 619.74 93.94 619.74 94.99 620.78 94.99 626.76 94.99 627.8 94.99 627.8 93.94 627.8 61.44 638.52 76.05 638.83 76.47 639.36 76.47 643.73 76.47 644.25 76.47 644.56 76.05 655.42 61.35 655.42 93.94 655.42 94.99 656.46 94.99 662.45 94.99 663.49 94.99 663.49 93.94 663.49 49.04 663.49 48 662.45 48"/>
      </g>
    </g>
  </g>
</svg>